<svg width="40" height="40" viewBox="0 0 40 40" fill="none" xmlns="http://www.w3.org/2000/svg">
<g clip-path="url(#clip0_0_1)">
<path d="M27.9331 21.7675L25.2374 17.2744L27.6566 16.6024C27.9061 16.5331 28.0521 16.2747 27.9828 16.0253C27.9135 15.7758 27.6551 15.6298 27.4057 15.6991L24.3985 16.5344C24.3983 16.5345 24.3981 16.5345 24.3978 16.5346L20.4688 17.626V12.469C20.4688 12.2101 20.2589 12.0002 20 12.0002C19.7411 12.0002 19.5313 12.2101 19.5313 12.469V17.8864L15.3612 19.0447C15.361 19.0447 15.3607 19.0448 15.3605 19.0448L12.3434 19.8829C12.094 19.9522 11.948 20.2106 12.0172 20.46C12.0749 20.6675 12.2633 20.8034 12.4686 20.8034C12.5101 20.8034 12.5524 20.7978 12.5943 20.7862L14.4751 20.2637L12.067 24.2778C12.0233 24.3506 12.0002 24.434 12.0002 24.5189C12.0002 26.4384 13.5618 28 15.4813 28C17.4009 28 18.9625 26.4384 18.9625 24.5189C18.9625 24.434 18.9394 24.3506 18.8957 24.2778L16.2 19.7847L23.5124 17.7535L21.1043 21.7675C21.0606 21.8403 21.0375 21.9237 21.0375 22.0086C21.0375 23.9281 22.5991 25.4897 24.5186 25.4897C25.4485 25.4897 26.3227 25.1276 26.9802 24.4701C27.6378 23.8126 27.9999 22.9384 27.9998 22.0086C27.9999 21.9237 27.9768 21.8403 27.9331 21.7675ZM15.4813 27.0625C14.2389 27.0625 13.2022 26.167 12.9815 24.9877H17.9812C17.7605 26.167 16.7238 27.0625 15.4813 27.0625ZM17.666 24.0502H13.2968L15.4813 20.4089L17.666 24.0502ZM24.5186 17.8986L26.7033 21.5398H22.3341L24.5186 17.8986ZM24.5187 24.5522C23.2763 24.5522 22.2395 23.6567 22.0188 22.4774H27.0186C26.7979 23.6567 25.7611 24.5522 24.5187 24.5522Z" fill="#8C3213"></path>
</g>
<circle cx="20" cy="20" r="19.5" stroke="#8C3213"></circle>
<defs>
<clipPath id="clip0_0_1">
<rect width="16" height="16" fill="white" transform="translate(12 12)"></rect>
</clipPath>
</defs>
</svg>