<svg width="16" height="16" viewBox="0 0 16 16" fill="none" xmlns="http://www.w3.org/2000/svg">
<g clip-path="url(#clip0_48_2749)">
<path d="M15.9331 9.7674L13.2374 5.27431L15.6566 4.60231C15.9061 4.53303 16.0521 4.27465 15.9828 4.02522C15.9135 3.77578 15.6551 3.62972 15.4057 3.69903L12.3985 4.53434C12.3983 4.5344 12.3981 4.53447 12.3978 4.53453L8.46877 5.6259V0.468933C8.46877 0.210058 8.25889 0.000183105 8.00002 0.000183105C7.74114 0.000183105 7.53127 0.210058 7.53127 0.468933V5.88631L3.36118 7.04462C3.36096 7.04468 3.36074 7.04475 3.36052 7.04478L0.343425 7.88284C0.0939564 7.95212 -0.0520436 8.2105 0.0172064 8.45994C0.0748627 8.6674 0.263269 8.80334 0.468581 8.80334C0.510113 8.80334 0.552363 8.79778 0.5943 8.78612L2.47511 8.26369L0.0669876 12.2777C0.0233001 12.3506 0.000175152 12.4339 0.000175152 12.5189C0.000175152 14.4383 1.56183 15.9999 3.48133 15.9999C5.40089 15.9999 6.96252 14.4383 6.96252 12.5189C6.96252 12.4339 6.93943 12.3506 6.89571 12.2777L4.20002 7.78459L11.5124 5.75343L9.1043 9.7674C9.06061 9.84025 9.03749 9.92362 9.03749 10.0086C9.03749 11.9281 10.5991 13.4897 12.5186 13.4897C13.4485 13.4897 14.3227 13.1276 14.9802 12.47C15.6378 11.8125 15.9999 10.9383 15.9998 10.0085C15.9999 9.92359 15.9768 9.84022 15.9331 9.7674ZM3.48133 15.0625C2.23892 15.0625 1.20218 14.1669 0.981456 12.9876H5.98121C5.76052 14.1669 4.72377 15.0625 3.48133 15.0625ZM5.66596 12.0501H1.29677L3.48133 8.40884L5.66596 12.0501ZM12.5186 5.89856L14.7033 9.53978H10.3341L12.5186 5.89856ZM12.5187 12.5522C11.2763 12.5522 10.2395 11.6566 10.0188 10.4773H15.0186C14.7979 11.6566 13.7611 12.5522 12.5187 12.5522Z" fill="#8C3213"/>
</g>
<defs>
<clipPath id="clip0_48_2749">
<rect width="16" height="16" fill="white"/>
</clipPath>
</defs>
</svg>
