<svg width="18" height="18" viewBox="0 0 18 18" fill="none" xmlns="http://www.w3.org/2000/svg">
<path fill-rule="evenodd" clip-rule="evenodd" d="M2.33268 12.3334V14.0001C2.33268 15.8417 3.82518 17.3334 5.66602 17.3334H13.9993C15.841 17.3334 17.3327 15.8417 17.3327 14.0001C17.3327 11.2259 17.3327 6.77508 17.3327 4.00008C17.3327 2.15925 15.841 0.666748 13.9993 0.666748C11.6168 0.666748 8.04935 0.666748 5.66602 0.666748C3.82518 0.666748 2.33268 2.15925 2.33268 4.00008V5.66675C2.33268 6.12675 2.70602 6.50008 3.16602 6.50008C3.62602 6.50008 3.99935 6.12675 3.99935 5.66675C3.99935 5.66675 3.99935 4.88591 3.99935 4.00008C3.99935 3.08008 4.74602 2.33341 5.66602 2.33341H13.9993C14.9202 2.33341 15.666 3.08008 15.666 4.00008V14.0001C15.666 14.9209 14.9202 15.6667 13.9993 15.6667C11.6168 15.6667 8.04935 15.6667 5.66602 15.6667C4.74602 15.6667 3.99935 14.9209 3.99935 14.0001C3.99935 13.1151 3.99935 12.3334 3.99935 12.3334C3.99935 11.8742 3.62602 11.5001 3.16602 11.5001C2.70602 11.5001 2.33268 11.8742 2.33268 12.3334ZM8.65435 8.16675L7.57685 7.09008C7.25185 6.76424 7.25185 6.23675 7.57685 5.91091C7.90268 5.58591 8.43018 5.58591 8.75518 5.91091L11.2552 8.41091C11.581 8.73675 11.581 9.26424 11.2552 9.59008L8.75518 12.0901C8.43018 12.4151 7.90268 12.4151 7.57685 12.0901C7.25185 11.7642 7.25185 11.2367 7.57685 10.9109L8.65435 9.83342H1.49935C1.03935 9.83342 0.666016 9.46008 0.666016 9.00008C0.666016 8.54092 1.03935 8.16675 1.49935 8.16675H8.65435Z" fill="#84BE51"/>
</svg>
