<svg width="40" height="40" viewBox="0 0 40 40" fill="none" xmlns="http://www.w3.org/2000/svg">
<g clip-path="url(#clip0_0_1)">
<path d="M27.9077 15.3428C27.8161 15.2115 27.6687 15.1304 27.5086 15.1235L17.5837 14.6957C17.2989 14.6833 17.0609 14.9031 17.0488 15.1865C17.0367 15.4699 17.2561 15.7093 17.5395 15.7215L26.7926 16.1203L24.9732 21.7968H16.877L15.4142 13.8324C15.3821 13.6579 15.2623 13.5123 15.097 13.4474L12.7013 12.5063C12.4373 12.4029 12.1393 12.5326 12.0356 12.7963C11.9321 13.0601 12.0618 13.3583 12.3257 13.462L14.4558 14.2988L15.9443 22.4029C15.9892 22.6465 16.2015 22.8235 16.4493 22.8235H16.6962L16.1324 24.3896C16.0852 24.5208 16.1047 24.6665 16.185 24.7805C16.2652 24.8945 16.3956 24.9623 16.5349 24.9623H16.9303C16.6853 25.2351 16.5349 25.5942 16.5349 25.9891C16.5349 26.8383 17.2259 27.5291 18.075 27.5291C18.924 27.5291 19.615 26.8383 19.615 25.9891C19.615 25.5942 19.4646 25.2351 19.2196 24.9623H22.5774C22.3322 25.2351 22.1818 25.5942 22.1818 25.9891C22.1818 26.8383 22.8727 27.5291 23.7219 27.5291C24.5712 27.5291 25.262 26.8383 25.262 25.9891C25.262 25.5942 25.1116 25.2351 24.8666 24.9623H25.3476C25.5839 24.9623 25.7754 24.7708 25.7754 24.5345C25.7754 24.2982 25.5839 24.1067 25.3476 24.1067H17.1436L17.6055 22.8233H25.3475C25.5708 22.8233 25.7683 22.6791 25.8363 22.4667L27.9753 15.793C28.0245 15.6406 27.9993 15.4741 27.9077 15.3428ZM18.075 26.6737C17.6975 26.6737 17.3905 26.3667 17.3905 25.9892C17.3905 25.6117 17.6975 25.3047 18.075 25.3047C18.4525 25.3047 18.7595 25.6117 18.7595 25.9892C18.7595 26.3667 18.4525 26.6737 18.075 26.6737ZM23.7219 26.6737C23.3444 26.6737 23.0374 26.3667 23.0374 25.9892C23.0374 25.6117 23.3444 25.3047 23.7219 25.3047C24.0994 25.3047 24.4064 25.6117 24.4064 25.9892C24.4064 26.3667 24.0994 26.6737 23.7219 26.6737Z" fill="#8C3213"/>
</g>
<circle cx="20" cy="20" r="19.5" stroke="#8C3213"/>
<defs>
<clipPath id="clip0_0_1">
<rect width="16" height="16" fill="white" transform="translate(12 12)"/>
</clipPath>
</defs>
</svg>
